# This file uses centimeters as units for non-parametric coordinates.

mtllib Water_LP.mtl
g default
v -2.042086 0.000000 -0.996636
v -1.858905 0.000000 -0.939907
v -1.621551 0.000000 -0.994662
v -1.394868 0.000170 -1.078356
v -1.143064 0.000000 -0.995523
v -0.950424 0.000000 -1.042761
v -2.086944 0.000000 -1.143330
v -1.896937 0.000000 -1.117763
v -1.630870 0.005184 -1.171424
v -1.391782 0.009645 -1.231125
v -1.119612 0.000000 -1.171424
v -0.887810 0.000000 -1.177223
v -2.016506 0.000000 -1.535895
v -1.951936 0.001130 -1.433770
v -1.663659 0.019103 -1.393690
v -1.389915 0.019103 -1.402557
v -1.178913 0.006267 -1.397449
v -0.937158 0.000000 -1.378068
v -2.055652 0.000000 -1.701806
v -1.922981 0.002433 -1.651000
v -1.660564 0.019103 -1.615099
v -1.369170 0.019103 -1.609238
v -1.090444 0.001631 -1.634595
v -0.890444 0.000000 -1.634595
v -2.246710 0.000000 -1.965128
v -1.868867 0.000000 -1.977238
v -1.637445 0.003096 -1.868066
v -1.317400 0.006701 -1.808413
v -0.933421 0.000000 -1.883745
v -0.761612 0.000000 -1.869261
v -2.063523 0.000000 -2.177336
v -1.863523 0.000000 -2.177336
v -1.617870 0.000000 -2.068224
v -1.361964 0.000000 -1.965128
v -0.961612 0.000000 -2.069261
v -0.820500 0.000000 -2.039005
v -2.042086 0.014875 -0.996636
v -1.858905 0.014875 -0.939907
v -1.896937 0.014875 -1.117763
v -2.086944 0.014875 -1.143330
v -1.621551 0.014875 -0.994662
v -1.630870 0.020097 -1.171424
v -1.394868 0.015045 -1.078356
v -1.391782 0.024576 -1.231125
v -1.143064 0.014875 -0.995523
v -1.119612 0.014875 -1.171424
v -0.950424 0.014875 -1.042761
v -0.887810 0.014875 -1.177223
v -1.951936 0.016020 -1.433770
v -2.016506 0.014875 -1.535895
v -1.663659 0.034065 -1.393690
v -1.389915 0.034065 -1.402557
v -1.178913 0.021185 -1.397449
v -0.937158 0.014875 -1.378068
v -1.922981 0.017332 -1.651000
v -2.055652 0.014875 -1.701806
v -1.660564 0.034065 -1.615099
v -1.369170 0.034065 -1.609238
v -1.090444 0.016525 -1.634595
v -0.890444 0.014875 -1.634595
v -1.868867 0.014875 -1.977238
v -2.246710 0.014875 -1.965128
v -1.637445 0.017998 -1.868066
v -1.317400 0.021621 -1.808413
v -0.933421 0.014875 -1.883745
v -0.761612 0.014875 -1.869261
v -1.863523 0.014875 -2.177336
v -2.063523 0.014875 -2.177336
v -1.617870 0.014875 -2.068224
v -1.361964 0.014875 -1.965128
v -0.961612 0.014875 -2.069261
v -0.820500 0.014875 -2.039005
vt 0.000000 0.000000
vt 0.200000 0.000000
vt 0.400000 0.000000
vt 0.600000 0.000000
vt 0.800000 0.000000
vt 1.000000 0.000000
vt 0.000000 0.200000
vt 0.200000 0.200000
vt 0.400000 0.200000
vt 0.600000 0.200000
vt 0.800000 0.200000
vt 1.000000 0.200000
vt 0.000000 0.400000
vt 0.200000 0.400000
vt 0.400000 0.400000
vt 0.600000 0.400000
vt 0.800000 0.400000
vt 1.000000 0.400000
vt 0.000000 0.600000
vt 0.200000 0.600000
vt 0.400000 0.600000
vt 0.600000 0.600000
vt 0.800000 0.600000
vt 1.000000 0.600000
vt 0.000000 0.800000
vt 0.200000 0.800000
vt 0.400000 0.800000
vt 0.600000 0.800000
vt 0.800000 0.800000
vt 1.000000 0.800000
vt 0.000000 1.000000
vt 0.200000 1.000000
vt 0.400000 1.000000
vt 0.600000 1.000000
vt 0.800000 1.000000
vt 1.000000 1.000000
vt 0.000000 0.000000
vt 0.200000 0.000000
vt 0.200000 0.200000
vt 0.000000 0.200000
vt 0.400000 0.000000
vt 0.400000 0.200000
vt 0.600000 0.000000
vt 0.600000 0.200000
vt 0.800000 0.000000
vt 0.800000 0.200000
vt 1.000000 0.000000
vt 1.000000 0.200000
vt 0.200000 0.400000
vt 0.000000 0.400000
vt 0.400000 0.400000
vt 0.600000 0.400000
vt 0.800000 0.400000
vt 1.000000 0.400000
vt 0.200000 0.600000
vt 0.000000 0.600000
vt 0.400000 0.600000
vt 0.600000 0.600000
vt 0.800000 0.600000
vt 1.000000 0.600000
vt 0.200000 0.800000
vt 0.000000 0.800000
vt 0.400000 0.800000
vt 0.600000 0.800000
vt 0.800000 0.800000
vt 1.000000 0.800000
vt 0.200000 1.000000
vt 0.000000 1.000000
vt 0.400000 1.000000
vt 0.600000 1.000000
vt 0.800000 1.000000
vt 1.000000 1.000000
vt 0.000000 0.000000
vt 0.200000 0.000000
vt 0.000000 0.200000
vt 0.400000 0.000000
vt 0.600000 0.000000
vt 0.800000 0.000000
vt 1.000000 0.000000
vt 1.000000 0.200000
vt 0.000000 0.400000
vt 1.000000 0.400000
vt 0.000000 0.600000
vt 1.000000 0.600000
vt 0.000000 0.800000
vt 1.000000 0.800000
vt 0.200000 1.000000
vt 0.000000 1.000000
vt 0.400000 1.000000
vt 0.600000 1.000000
vt 0.800000 1.000000
vt 1.000000 1.000000
vn 0.000000 1.000000 0.000000
vn -0.004915 0.999928 0.010995
vn -0.018549 0.999676 0.017451
vn -0.003579 0.999993 0.001023
vn -0.002908 0.999640 0.026673
vn -0.015919 0.999126 0.038659
vn 0.007400 0.999291 0.036918
vn 0.014933 0.998957 0.043164
vn 0.006595 0.999809 0.018379
vn 0.015328 0.999714 0.018340
vn 0.000000 1.000000 -0.000000
vn 0.008554 0.999935 0.007553
vn -0.033029 0.999402 0.010245
vn -0.015014 0.999883 0.003011
vn -0.028732 0.999319 0.023148
vn 0.024028 0.999460 0.022405
vn 0.037659 0.999221 0.011830
vn 0.015566 0.999872 0.003627
vn -0.030701 0.999445 -0.012910
vn -0.006035 0.999979 -0.002489
vn -0.023432 0.999385 -0.026083
vn 0.022456 0.999499 -0.022286
vn 0.030456 0.999511 -0.007062
vn 0.010598 0.999941 -0.002411
vn -0.009196 0.999890 -0.011625
vn -0.002731 0.999995 -0.001852
vn -0.010728 0.999257 -0.037029
vn 0.012952 0.999450 -0.030527
vn 0.008937 0.999905 -0.010480
vn 0.002824 0.999996 -0.000487
vn -0.001125 0.999995 -0.003103
vn 0.000000 1.000000 0.000000
vn -0.001066 0.999870 -0.016108
vn 0.002710 0.999703 -0.024201
vn 0.002968 0.999874 -0.015631
vn -0.000000 1.000000 0.000000
vn 0.000000 -1.000000 0.000000
vn 0.003530 -0.999993 -0.001009
vn 0.018447 -0.999679 -0.017361
vn 0.004879 -0.999929 -0.010915
vn 0.015845 -0.999134 -0.038474
vn 0.002895 -0.999645 -0.026494
vn -0.014860 -0.998966 -0.042964
vn -0.007346 -0.999300 -0.036690
vn -0.015246 -0.999717 -0.018236
vn -0.006558 -0.999812 -0.018270
vn -0.008496 -0.999936 -0.007501
vn 0.000000 -1.000000 0.000000
vn 0.014850 -0.999885 -0.002985
vn 0.032865 -0.999408 -0.010191
vn 0.028607 -0.999325 -0.023055
vn -0.023933 -0.999464 -0.022321
vn -0.037487 -0.999228 -0.011773
vn -0.015452 -0.999874 -0.003592
vn 0.005974 -0.999979 0.002463
vn 0.030552 -0.999451 0.012850
vn 0.023334 -0.999390 0.025982
vn -0.022367 -0.999503 0.022200
vn -0.030303 -0.999516 0.007032
vn -0.010506 -0.999942 0.002402
vn 0.002704 -0.999995 0.001834
vn 0.009144 -0.999891 0.011559
vn 0.010680 -0.999264 0.036854
vn -0.012888 -0.999455 0.030382
vn -0.008883 -0.999906 0.010416
vn -0.002791 -0.999996 0.000481
vn 0.000000 -1.000000 0.000000
vn 0.001115 -0.999995 0.003075
vn 0.001063 -0.999872 0.015981
vn -0.002682 -0.999708 0.024030
vn -0.002949 -0.999875 0.015527
vn 0.000000 -1.000000 0.000000
vn -0.295830 0.000000 0.955241
vn -0.295830 0.000000 0.955241
vn -0.295830 0.000000 0.955241
vn -0.295830 0.000000 0.955241
vn -0.998877 0.000000 -0.047381
vn -0.956288 0.000000 0.292428
vn -0.956288 0.000000 0.292428
vn -0.998877 0.000000 -0.047381
vn 0.224786 0.000000 0.974408
vn 0.285890 0.000000 0.958262
vn 0.285918 0.000000 0.958254
vn 0.224786 0.000000 0.974408
vn 0.346358 0.000000 0.938102
vn 0.346358 0.000000 0.938102
vn -0.312485 0.000000 0.949923
vn -0.312485 0.000000 0.949923
vn -0.312485 0.000000 0.949923
vn -0.312485 0.000000 0.949923
vn 0.238156 0.000000 0.971227
vn 0.238156 0.000000 0.971227
vn 0.238156 0.000000 0.971227
vn 0.238156 0.000000 0.971227
vn 0.906532 0.000000 0.422137
vn 0.906532 0.000000 0.422137
vn 0.906532 0.000000 0.422137
vn 0.906532 0.000000 0.422137
vn -0.998434 0.000000 -0.055943
vn -0.998434 0.000000 -0.055943
vn 0.971116 0.000000 -0.238607
vn 0.999983 0.000000 -0.005760
vn 0.999983 0.000000 -0.005760
vn 0.971116 0.000000 -0.238607
vn -0.881260 0.000000 0.472631
vn -0.881260 0.000000 0.472631
vn 0.941669 0.000000 0.336540
vn 0.941669 0.000000 0.336540
vn -0.809392 0.000000 0.587268
vn -0.809392 0.000000 0.587268
vn 0.876585 0.000000 0.481246
vn 0.876585 0.000000 0.481246
vn 0.237814 0.000000 -0.971311
vn 0.000000 0.000000 -1.000000
vn 0.000000 0.000000 -1.000000
vn 0.237814 0.000000 -0.971311
vn -0.756971 0.000000 -0.653449
vn -0.756971 0.000000 -0.653449
vn -0.756971 0.000000 -0.653449
vn -0.756971 0.000000 -0.653449
vn 0.389656 0.000000 -0.920960
vn 0.389656 0.000000 -0.920960
vn 0.373681 0.000000 -0.927557
vn 0.373681 0.000000 -0.927557
vn -0.135186 0.000000 -0.990820
vn -0.251728 0.000000 -0.967798
vn -0.251728 0.000000 -0.967798
vn -0.135186 0.000000 -0.990820
vn 0.944762 0.000000 -0.327758
vn 0.944762 0.000000 -0.327758
vn 0.944762 0.000000 -0.327758
vn 0.944762 0.000000 -0.327758
vn 0.209648 0.000000 -0.977777
vn 0.209648 0.000000 -0.977777
s 1
g Water_Geo
usemtl initialShadingGroup
f 37/73/1 38/74/2 39/8/3 40/75/4
f 38/74/2 41/76/5 42/9/6 39/8/3
f 41/76/5 43/77/7 44/10/8 42/9/6
f 43/77/7 45/78/9 46/11/10 44/10/8
f 45/78/9 47/79/11 48/80/12 46/11/10
f 40/75/4 39/8/3 49/14/13 50/81/14
f 39/8/3 42/9/6 51/15/15 49/14/13
f 42/9/6 44/10/8 52/16/16 51/15/15
f 44/10/8 46/11/10 53/17/17 52/16/16
f 46/11/10 48/80/12 54/82/18 53/17/17
f 50/81/14 49/14/13 55/20/19 56/83/20
f 49/14/13 51/15/15 57/21/21 55/20/19
f 51/15/15 52/16/16 58/22/22 57/21/21
f 52/16/16 53/17/17 59/23/23 58/22/22
f 53/17/17 54/82/18 60/84/24 59/23/23
f 56/83/20 55/20/19 61/26/25 62/85/26
f 55/20/19 57/21/21 63/27/27 61/26/25
f 57/21/21 58/22/22 64/28/28 63/27/27
f 58/22/22 59/23/23 65/29/29 64/28/28
f 59/23/23 60/84/24 66/86/30 65/29/29
f 62/85/26 61/26/25 67/87/31 68/88/32
f 61/26/25 63/27/27 69/89/33 67/87/31
f 63/27/27 64/28/28 70/90/34 69/89/33
f 64/28/28 65/29/29 71/91/35 70/90/34
f 65/29/29 66/86/30 72/92/36 71/91/35
s 2
f 1/37/37 7/40/38 8/39/39 2/38/40
f 2/38/40 8/39/39 9/42/41 3/41/42
f 3/41/42 9/42/41 10/44/43 4/43/44
f 4/43/44 10/44/43 11/46/45 5/45/46
f 5/45/46 11/46/45 12/48/47 6/47/48
f 7/40/38 13/50/49 14/49/50 8/39/39
f 8/39/39 14/49/50 15/51/51 9/42/41
f 9/42/41 15/51/51 16/52/52 10/44/43
f 10/44/43 16/52/52 17/53/53 11/46/45
f 11/46/45 17/53/53 18/54/54 12/48/47
f 13/50/49 19/56/55 20/55/56 14/49/50
f 14/49/50 20/55/56 21/57/57 15/51/51
f 15/51/51 21/57/57 22/58/58 16/52/52
f 16/52/52 22/58/58 23/59/59 17/53/53
f 17/53/53 23/59/59 24/60/60 18/54/54
f 19/56/55 25/62/61 26/61/62 20/55/56
f 20/55/56 26/61/62 27/63/63 21/57/57
f 21/57/57 27/63/63 28/64/64 22/58/58
f 22/58/58 28/64/64 29/65/65 23/59/59
f 23/59/59 29/65/65 30/66/66 24/60/60
f 25/62/61 31/68/67 32/67/68 26/61/62
f 26/61/62 32/67/68 33/69/69 27/63/63
f 27/63/63 33/69/69 34/70/70 28/64/64
f 28/64/64 34/70/70 35/71/71 29/65/65
f 29/65/65 35/71/71 36/72/72 30/66/66
s off
f 1/1/73 2/2/74 38/74/75 37/73/76
s 3
f 7/7/77 1/1/78 37/73/79 40/75/80
s 4
f 2/2/81 3/3/82 41/76/83 38/74/84
f 3/3/82 4/4/85 43/77/86 41/76/83
s off
f 4/4/87 5/5/88 45/78/89 43/77/90
f 5/5/91 6/6/92 47/79/93 45/78/94
f 6/6/95 12/12/96 48/80/97 47/79/98
s 3
f 13/13/99 7/7/77 40/75/80 50/81/100
s 5
f 12/12/101 18/18/102 54/82/103 48/80/104
s 3
f 19/19/105 13/13/99 50/81/100 56/83/106
s 5
f 18/18/102 24/24/107 60/84/108 54/82/103
s 3
f 25/25/109 19/19/105 56/83/106 62/85/110
s 5
f 24/24/107 30/30/111 66/86/112 60/84/108
s 6
f 32/32/113 31/31/114 68/88/115 67/87/116
s off
f 31/31/117 25/25/118 62/85/119 68/88/120
s 6
f 33/33/121 32/32/113 67/87/116 69/89/122
f 34/34/123 33/33/121 69/89/122 70/90/124
s 7
f 35/35/125 34/34/126 70/90/127 71/91/128
s off
f 30/30/129 36/36/130 72/92/131 66/86/132
s 7
f 36/36/133 35/35/125 71/91/128 72/92/134
