# This file uses centimeters as units for non-parametric coordinates.

mtllib InsideCorner_LP.mtl
g default
v 3.000000 0.000000 -2.000000
v 3.000000 0.000000 -2.507700
v 3.000000 0.000000 -3.000000
v 3.000000 1.000000 -2.007709
v 3.000000 1.000000 -2.507700
v 3.000000 0.600000 -3.000000
v 0.000427 0.600000 -2.999591
v 0.000000 0.000000 -3.000000
v 0.987391 1.000000 -1.997512
v 0.481504 1.000000 -2.494046
v 1.000000 0.000000 -2.002805
v 0.433677 0.007668 -2.603483
v 0.997985 1.000000 0.004050
v 0.497994 1.000000 0.000000
v -0.001997 0.600000 0.000000
v 1.000000 0.000000 0.004050
v 0.497994 0.000000 0.007025
v -0.001997 0.000000 0.000000
vt 0.665870 0.998922
vt 0.108514 0.998263
vt 0.418760 0.998617
vt 0.501105 0.998622
vt 0.190884 0.998364
vt 0.313276 0.998486
vt 0.313885 0.504957
vt 0.875880 0.516818
vt 0.875961 0.619651
vt 0.704492 0.516951
vt 0.704626 0.688339
vt 0.790320 0.688273
vt 0.790186 0.516885
vt 0.026144 0.998161
vt 0.501428 0.672413
vt 0.419266 0.589110
vt 0.545280 0.469834
vt 0.407490 0.418257
vt 0.435529 0.066638
vt 0.545819 0.033410
vt 0.289728 0.498355
vt 0.290338 0.004155
vt 0.884027 0.203089
vt 0.884548 0.284450
vt 0.721825 0.285491
vt 0.721305 0.204131
vt 0.819979 0.366228
vt 0.722346 0.366852
vt 0.011056 0.003830
vt 0.103238 0.003931
vt 0.092815 0.498150
vt 0.191494 0.004033
vt 0.184997 0.498251
vt 0.705874 0.004591
vt 0.705264 0.498809
vt 0.191494 0.504835
vt 0.190884 0.498251
vt 0.215042 0.504835
vt 0.010446 0.498048
vt 0.666273 0.672748
vt 0.026547 0.671987
vt 0.102627 0.498150
vt 0.109020 0.588756
vt 0.109020 0.588756
vt 0.108514 0.998263
vt 0.093426 0.003931
vt 0.214432 0.998364
vt 0.185607 0.004033
vt 0.436585 0.476171
vt 0.407183 0.001441
vt 0.518670 0.394112
vt 0.517399 0.066374
vn 1.000000 0.000000 0.000000
vn 1.000000 0.000000 0.000000
vn 1.000000 0.000000 0.000000
vn 1.000000 0.000000 0.000000
vn 1.000000 0.000000 0.000000
vn 1.000000 0.000000 0.000000
vn 0.000000 1.000000 0.000000
vn -0.001028 0.915016 -0.403417
vn -0.001343 0.849754 -0.527178
vn 0.000000 1.000000 0.000000
vn -0.001593 0.780585 -0.625048
vn -0.001593 0.780585 -0.625048
vn -0.000068 0.000341 -1.000000
vn -0.000068 0.000341 -1.000000
vn -0.000068 0.000341 -1.000000
vn -0.000068 0.000341 -1.000000
vn -0.001547 -0.999980 -0.006128
vn -0.001547 -0.999980 -0.006128
vn -0.001547 -0.999980 -0.006128
vn -0.001547 -0.999980 -0.006128
vn -0.001539 -0.999955 0.009378
vn -0.001539 -0.999955 0.009378
vn -0.001539 -0.999955 0.009378
vn -0.001539 -0.999955 0.009378
vn 0.001842 0.001220 0.999998
vn 0.001842 0.001220 0.999998
vn 0.001842 0.001220 0.999998
vn 0.001842 0.001220 0.999998
vn 0.000000 1.000000 0.000000
vn -0.534033 0.845463 0.001367
vn -0.404101 0.914714 0.001035
vn 0.000000 1.000000 0.000000
vn -0.632463 0.774589 0.001619
vn -0.632463 0.774589 0.001619
vn -0.001074 0.003511 0.999993
vn -0.003485 0.003786 0.999987
vn -0.004495 0.003902 0.999982
vn -0.001074 0.003511 0.999993
vn -0.008781 0.004390 0.999952
vn -0.008781 0.004390 0.999952
vn -0.006298 -0.999979 -0.001573
vn -0.006298 -0.999979 -0.001573
vn -0.006298 -0.999979 -0.001573
vn -0.006298 -0.999979 -0.001573
vn 0.008846 -0.999960 -0.001465
vn 0.008846 -0.999960 -0.001465
vn 0.008846 -0.999960 -0.001465
vn 0.008846 -0.999960 -0.001465
vn -1.000000 0.000356 -0.000737
vn -1.000000 0.000356 -0.000737
vn -1.000000 0.000356 -0.000737
vn -1.000000 0.000356 -0.000737
vn 0.999970 0.007319 -0.002643
vn 0.999970 0.007319 -0.002643
vn 0.999970 0.007319 -0.002643
vn 0.999970 0.007319 -0.002643
s 1
g InsiderCorner
usemtl initialShadingGroup
f 1/10/1 2/13/2 5/12/3 4/11/4
f 2/13/2 3/8/5 6/9/6 5/12/3
s 2
f 4/4/7 5/3/8 10/16/9 9/15/10
f 5/3/8 6/6/11 7/7/12 10/16/9
s off
f 3/47/13 8/38/14 7/7/15 6/6/16
f 11/41/17 12/43/18 2/2/19 1/14/20
f 12/44/21 8/36/22 3/5/23 2/45/24
f 9/15/25 11/40/26 1/1/27 4/4/28
s 3
f 9/51/29 10/49/30 14/19/31 13/52/32
f 10/18/30 7/21/33 15/22/34 14/50/31
s 4
f 13/23/35 14/24/36 17/25/37 16/26/38
f 14/24/36 15/27/39 18/28/40 17/25/37
s off
f 16/29/41 17/46/42 12/31/43 11/39/44
f 17/30/45 18/48/46 8/33/47 12/42/48
f 8/37/49 18/32/50 15/22/51 7/21/52
f 16/34/53 11/35/54 9/17/55 13/20/56
