# This file uses centimeters as units for non-parametric coordinates.

mtllib InsideFloorBend_LP.mtl
g default
v 0.000000 0.000000 0.000000
v 3.000000 0.000000 0.000000
v 3.000000 0.000000 -3.000000
v 2.715549 0.000000 -2.898438
v 2.554726 0.000000 -2.848646
v 2.399073 0.000000 -2.818694
v 2.259070 0.000000 -2.791759
v 2.111762 0.000000 -2.748104
v 1.979259 0.000000 -2.708838
v 1.840910 0.000000 -2.651404
v 1.716472 0.000000 -2.599748
v 1.587521 0.000000 -2.528535
v 1.471538 0.000000 -2.464485
v 1.352289 0.000000 -2.379601
v 1.245034 0.000000 -2.303252
v 1.146729 0.000000 -2.214836
v 1.037429 0.000000 -2.116536
v 0.938335 0.000000 -2.005258
v 0.849211 0.000000 -1.905168
v 0.760641 0.000000 -1.781565
v 0.680981 0.000000 -1.670386
v 0.603347 0.000000 -1.535336
v 0.533531 0.000000 -1.413864
v 0.467350 0.000000 -1.268474
v 0.407831 0.000000 -1.137697
v 0.353710 0.000000 -0.983289
v 0.283189 0.000000 -0.844400
v 0.234020 0.000000 -0.682494
v 0.196797 0.000000 -0.536857
v 0.168837 0.000000 -0.369144
v 0.143690 0.000000 -0.218282
v 0.099636 0.000000 -0.064471
v 0.000000 0.000000 -0.000122
vt 0.000000 0.000000
vt 1.000000 0.000000
vt 1.000000 1.000000
vt 0.905183 0.995431
vt 0.801851 0.985053
vt 0.749967 0.975069
vt 0.703299 0.966090
vt 0.654196 0.951539
vt 0.610028 0.938450
vt 0.563912 0.919306
vt 0.522433 0.902087
vt 0.479449 0.878349
vt 0.440788 0.856999
vt 0.401039 0.828704
vt 0.365287 0.803255
vt 0.332519 0.773783
vt 0.296085 0.741016
vt 0.263054 0.703923
vt 0.233346 0.670560
vt 0.203823 0.629359
vt 0.177269 0.592299
vt 0.151391 0.547283
vt 0.128119 0.506792
vt 0.106059 0.458329
vt 0.086219 0.414736
vt 0.068179 0.363267
vt 0.051955 0.316971
vt 0.038159 0.263002
vt 0.025751 0.214457
vt 0.016431 0.158552
vt 0.008049 0.108265
vt 0.004236 0.056994
vt 0.000000 0.000041
vn 0.000000 1.000000 0.000000
vn 0.000000 1.000000 0.000000
vn 0.000000 1.000000 0.000000
vn 0.000000 1.000000 0.000000
vn 0.000000 1.000000 0.000000
vn 0.000000 1.000000 0.000000
vn 0.000000 1.000000 0.000000
vn 0.000000 1.000000 0.000000
vn 0.000000 1.000000 0.000000
vn 0.000000 1.000000 0.000000
vn 0.000000 1.000000 0.000000
vn 0.000000 1.000000 0.000000
vn 0.000000 1.000000 0.000000
vn 0.000000 1.000000 0.000000
vn 0.000000 1.000000 0.000000
vn 0.000000 1.000000 0.000000
vn 0.000000 1.000000 0.000000
vn 0.000000 1.000000 0.000000
vn 0.000000 1.000000 0.000000
vn 0.000000 1.000000 0.000000
vn 0.000000 1.000000 0.000000
vn 0.000000 1.000000 0.000000
vn 0.000000 1.000000 0.000000
vn 0.000000 1.000000 0.000000
vn 0.000000 1.000000 0.000000
vn 0.000000 1.000000 0.000000
vn 0.000000 1.000000 0.000000
vn 0.000000 1.000000 0.000000
vn 0.000000 1.000000 0.000000
vn 0.000000 1.000000 0.000000
vn 0.000000 1.000000 0.000000
vn 0.000000 1.000000 0.000000
vn 0.000000 1.000000 0.000000
s off
g InsideFloorBend
usemtl initialShadingGroup
f 1/1/1 2/2/2 3/3/3 4/4/4 5/5/5 6/6/6 7/7/7 8/8/8 9/9/9 10/10/10 11/11/11 12/12/12 13/13/13 14/14/14 15/15/15 16/16/16 17/17/17 18/18/18 19/19/19 20/20/20 21/21/21 22/22/22 23/23/23 24/24/24 25/25/25 26/26/26 27/27/27 28/28/28 29/29/29 30/30/30 31/31/31 32/32/32 33/33/33
