# This file uses centimeters as units for non-parametric coordinates.

mtllib Stairs_LP.mtl
g default
v 0.000000 0.000000 0.000000
v 3.000000 0.000000 0.000000
v 0.000000 0.500000 0.000000
v 3.000000 0.500000 0.000000
v 0.000000 0.500000 -3.000000
v 3.000000 0.500000 -3.000000
v 0.000000 0.000000 -3.000000
v 3.000000 0.000000 -3.000000
v 0.000000 0.500000 -2.500000
v 0.000000 0.000000 -2.500000
v 3.000000 0.000000 -2.500000
v 3.000000 0.500000 -2.500000
v 0.000000 0.500000 -2.000000
v 0.000000 0.000000 -2.000000
v 3.000000 0.000000 -2.000000
v 3.000000 0.500000 -2.000000
v 0.000000 0.500000 -1.500000
v 0.000000 0.000000 -1.500000
v 3.000000 0.000000 -1.500000
v 3.000000 0.500000 -1.500000
v 0.000000 0.500000 -1.000000
v 0.000000 0.000000 -1.000000
v 3.000000 0.000000 -1.000000
v 3.000000 0.500000 -1.000000
v 0.000000 0.500000 -0.500000
v 0.000000 0.000000 -0.500000
v 3.000000 0.000000 -0.500000
v 3.000000 0.500000 -0.500000
v 3.000000 1.001411 -2.500000
v -0.000000 1.001411 -2.500000
v 3.000000 1.001411 -3.000000
v -0.000000 1.001411 -3.000000
v 3.000000 1.001411 -2.000000
v 0.000000 1.001411 -2.000000
v 3.000000 1.001411 -1.500000
v 0.000000 1.001411 -1.500000
v 3.000000 1.001411 -1.000000
v 0.000000 1.001411 -1.000000
v 3.000000 1.001411 -0.500000
v 0.000000 1.001411 -0.500000
v 3.000000 1.465763 -2.500000
v -0.000000 1.465763 -2.500000
v 3.000000 1.465763 -3.000000
v -0.000000 1.465763 -3.000000
v 3.000000 1.465763 -2.000000
v -0.000000 1.465763 -2.000000
v 3.000000 1.465763 -1.500000
v 0.000000 1.465763 -1.500000
v 3.000000 1.465763 -1.000000
v 0.000000 1.465763 -1.000000
v 3.000000 2.000000 -2.500000
v -0.000000 2.000000 -2.500000
v 3.000000 2.000000 -3.000000
v -0.000000 2.000000 -3.000000
v 3.000000 2.000000 -2.000000
v -0.000000 2.000000 -2.000000
v 3.000000 2.000000 -1.500000
v 0.000000 2.000000 -1.500000
v 3.000000 2.479063 -2.500000
v -0.000000 2.479063 -2.500000
v 3.000000 2.479063 -3.000000
v -0.000000 2.479063 -3.000000
v 3.000000 2.479063 -2.000000
v 0.000000 2.479063 -2.000000
v 3.000000 3.000000 -2.500000
v -0.000000 3.000000 -2.500000
v 3.000000 3.000000 -3.000000
v -0.000000 3.000000 -3.000000
vt 0.385118 0.161306
vt 0.380146 0.011125
vt 0.380146 0.072249
vt 0.446242 0.161166
vt 0.441269 0.072249
vt 0.446382 0.222289
vt 0.447083 0.527905
vt 0.746886 0.072249
vt 0.746886 0.011125
vt 0.385959 0.528045
vt 0.385258 0.222429
vt 0.441269 0.011125
vt 0.385819 0.466922
vt 0.446942 0.466782
vt 0.685763 0.011125
vt 0.685763 0.072249
vt 0.752558 0.466081
vt 0.685763 0.377866
vt 0.746886 0.377866
vt 0.752699 0.527204
vt 0.385679 0.405799
vt 0.446802 0.405659
vt 0.624639 0.011125
vt 0.624639 0.072249
vt 0.688736 0.405104
vt 0.624639 0.314183
vt 0.685763 0.314183
vt 0.688876 0.466227
vt 0.385539 0.344676
vt 0.446662 0.344535
vt 0.563516 0.011125
vt 0.563516 0.072249
vt 0.630031 0.344115
vt 0.563516 0.255619
vt 0.624639 0.255619
vt 0.630172 0.405238
vt 0.385399 0.283552
vt 0.446522 0.283412
vt 0.502392 0.011125
vt 0.502392 0.072249
vt 0.564583 0.283141
vt 0.502392 0.190310
vt 0.563516 0.190310
vt 0.564723 0.344265
vt 0.507677 0.222148
vt 0.441269 0.133545
vt 0.502392 0.133545
vt 0.507818 0.283272
vt 0.746886 0.133545
vt 0.685763 0.133545
vt 0.508378 0.527764
vt 0.508238 0.466641
vt 0.624639 0.133545
vt 0.508098 0.405518
vt 0.563516 0.133545
vt 0.507958 0.344395
vt 0.746886 0.190310
vt 0.685763 0.190310
vt 0.565144 0.527634
vt 0.565003 0.466511
vt 0.624639 0.190310
vt 0.564863 0.405388
vt 0.746886 0.255619
vt 0.685763 0.255619
vt 0.630452 0.527484
vt 0.630312 0.466361
vt 0.746886 0.314183
vt 0.689016 0.527350
vt 0.790306 0.757575
vt 0.790306 0.390835
vt 0.851429 0.390835
vt 0.851429 0.757575
vt 0.315408 0.373728
vt 0.314267 0.006989
vt 0.375390 0.006799
vt 0.376531 0.373537
vt 0.009792 0.374679
vt 0.008651 0.007940
vt 0.069774 0.007750
vt 0.070915 0.374488
vt 0.387823 0.706272
vt 0.754563 0.706272
vt 0.754563 0.767395
vt 0.387823 0.767395
vt 0.130897 0.007560
vt 0.132039 0.374298
vt 0.861421 0.761280
vt 0.861421 0.394539
vt 0.922544 0.394539
vt 0.922544 0.761280
vt 0.192020 0.007370
vt 0.193162 0.374108
vt 0.930346 0.757575
vt 0.930346 0.390835
vt 0.991469 0.390835
vt 0.991469 0.757575
vt 0.253143 0.007179
vt 0.254285 0.373918
vt 0.385971 0.634765
vt 0.752711 0.634765
vt 0.752711 0.695888
vt 0.385971 0.695888
vt 0.862935 0.379718
vt 0.862935 0.012978
vt 0.924058 0.012978
vt 0.924058 0.379718
vt 0.403326 0.978998
vt 0.036604 0.975324
vt 0.037217 0.914204
vt 0.403939 0.917877
vt 0.375391 0.448250
vt 0.008651 0.448250
vt 0.008651 0.387127
vt 0.375391 0.387127
vt 0.375391 0.509546
vt 0.008651 0.509546
vt 0.766953 0.914411
vt 0.400232 0.910570
vt 0.400875 0.849277
vt 0.767595 0.853119
vt 0.375391 0.566312
vt 0.008651 0.566312
vt 0.776655 0.978238
vt 0.409915 0.978812
vt 0.409826 0.922047
vt 0.776566 0.921473
vt 0.375391 0.631620
vt 0.008651 0.631620
vt 0.614561 0.840749
vt 0.247903 0.833011
vt 0.249281 0.767717
vt 0.615939 0.775455
vt 0.375391 0.690184
vt 0.008651 0.690184
vt 0.987193 0.842603
vt 0.620454 0.841422
vt 0.620643 0.782859
vt 0.987381 0.784040
vt 0.393199 0.910612
vt 0.026510 0.904450
vt 0.027580 0.840776
vt 0.394269 0.846938
vt 0.375391 0.753867
vt 0.008651 0.753867
vn 0.000000 0.000000 1.000000
vn 0.000000 0.000000 1.000000
vn 0.000000 0.000000 1.000000
vn 0.000000 0.000000 1.000000
vn 0.000000 1.000000 0.000000
vn 0.000000 1.000000 0.000000
vn 0.000000 1.000000 0.000000
vn 0.000000 1.000000 0.000000
vn 0.000000 0.000000 -1.000000
vn 0.000000 0.000000 -1.000000
vn 0.000000 0.000000 -1.000000
vn 0.000000 0.000000 -1.000000
vn 0.000000 -1.000000 0.000000
vn 0.000000 -1.000000 0.000000
vn 0.000000 -1.000000 0.000000
vn 0.000000 -1.000000 0.000000
vn 1.000000 0.000000 0.000000
vn 1.000000 0.000000 0.000000
vn 1.000000 0.000000 0.000000
vn 1.000000 0.000000 0.000000
vn -1.000000 0.000000 0.000000
vn -1.000000 0.000000 0.000000
vn -1.000000 0.000000 0.000000
vn -1.000000 0.000000 0.000000
vn -1.000000 0.000000 0.000000
vn -1.000000 0.000000 0.000000
vn -1.000000 -0.000000 0.000000
vn -1.000000 -0.000000 0.000000
vn 0.000000 -1.000000 0.000000
vn 0.000000 -1.000000 0.000000
vn 0.000000 -1.000000 0.000000
vn 0.000000 -1.000000 0.000000
vn 1.000000 0.000000 0.000000
vn 1.000000 0.000000 0.000000
vn 1.000000 0.000000 0.000000
vn 1.000000 0.000000 0.000000
vn 0.000000 1.000000 -0.000000
vn 0.000000 1.000000 -0.000000
vn 0.000000 1.000000 -0.000000
vn 0.000000 1.000000 -0.000000
vn -1.000000 0.000000 0.000000
vn -1.000000 -0.000000 0.000000
vn 0.000000 -1.000000 0.000000
vn 0.000000 -1.000000 0.000000
vn 1.000000 0.000000 0.000000
vn 1.000000 0.000000 0.000000
vn 0.000000 1.000000 -0.000000
vn 0.000000 1.000000 -0.000000
vn 0.000000 1.000000 -0.000000
vn 0.000000 1.000000 -0.000000
vn -1.000000 0.000000 0.000000
vn -1.000000 0.000000 0.000000
vn 0.000000 -1.000000 0.000000
vn 0.000000 -1.000000 0.000000
vn 1.000000 0.000000 0.000000
vn 1.000000 0.000000 0.000000
vn 0.000000 1.000000 -0.000000
vn 0.000000 1.000000 -0.000000
vn 0.000000 1.000000 -0.000000
vn 0.000000 1.000000 -0.000000
vn -1.000000 0.000000 0.000000
vn -1.000000 0.000000 0.000000
vn 0.000000 -1.000000 0.000000
vn 0.000000 -1.000000 0.000000
vn 1.000000 0.000000 0.000000
vn 1.000000 0.000000 0.000000
vn 0.000000 1.000000 0.000000
vn 0.000000 1.000000 0.000000
vn 0.000000 1.000000 0.000000
vn 0.000000 1.000000 0.000000
vn 0.000000 1.000000 0.000000
vn 0.000000 1.000000 0.000000
vn 0.000000 1.000000 0.000000
vn 0.000000 1.000000 0.000000
vn 1.000000 0.000000 0.000000
vn 1.000000 0.000000 0.000000
vn 0.000000 0.000000 -1.000000
vn 0.000000 0.000000 -1.000000
vn -1.000000 -0.000000 0.000000
vn -1.000000 -0.000000 0.000000
vn 1.000000 0.000000 0.000000
vn -1.000000 -0.000000 0.000000
vn 1.000000 0.000000 0.000000
vn -1.000000 -0.000000 0.000000
vn 1.000000 0.000000 0.000000
vn -1.000000 0.000000 0.000000
vn 0.000000 0.000000 1.000000
vn 0.000000 0.000000 1.000000
vn 0.000000 0.000000 1.000000
vn 0.000000 0.000000 1.000000
vn 1.000000 0.000000 0.000000
vn -1.000000 0.000000 0.000000
vn 1.000000 0.000000 0.000000
vn 1.000000 0.000000 0.000000
vn 0.000000 0.000000 -1.000000
vn 0.000000 0.000000 -1.000000
vn -1.000000 -0.000000 0.000000
vn -1.000000 -0.000000 0.000000
vn 1.000000 0.000000 0.000000
vn -1.000000 -0.000000 0.000000
vn 1.000000 0.000000 0.000000
vn -1.000000 -0.000000 0.000000
vn 0.000000 0.000000 1.000000
vn 0.000000 0.000000 1.000000
vn 0.000000 0.000000 1.000000
vn 0.000000 0.000000 1.000000
vn 1.000000 0.000000 0.000000
vn -1.000000 0.000000 0.000000
vn 1.000000 0.000000 0.000000
vn 1.000000 0.000000 0.000000
vn 0.000000 0.000000 -1.000000
vn 0.000000 0.000000 -1.000000
vn -1.000000 -0.000000 0.000000
vn -1.000000 -0.000000 0.000000
vn 1.000000 0.000000 0.000000
vn -1.000000 -0.000000 0.000000
vn 0.000000 0.000000 1.000000
vn 0.000000 0.000000 1.000000
vn 0.000000 0.000000 1.000000
vn 0.000000 0.000000 1.000000
vn 1.000000 0.000000 0.000000
vn -1.000000 -0.000000 0.000000
vn 1.000000 0.000000 0.000000
vn 1.000000 0.000000 0.000000
vn 0.000000 0.000000 -1.000000
vn 0.000000 0.000000 -1.000000
vn -1.000000 -0.000000 0.000000
vn -1.000000 -0.000000 0.000000
vn 0.000000 0.000000 1.000000
vn 0.000000 0.000000 1.000000
vn 0.000000 0.000000 1.000000
vn 0.000000 0.000000 1.000000
vn 1.000000 0.000000 0.000000
vn -1.000000 0.000000 0.000000
vn 0.000000 0.000000 1.000000
vn 0.000000 0.000000 1.000000
vn 0.000000 0.000000 1.000000
vn 0.000000 0.000000 1.000000
vn 1.000000 0.000000 0.000000
vn 1.000000 0.000000 0.000000
vn 0.000000 0.000000 -1.000000
vn 0.000000 0.000000 -1.000000
vn -1.000000 0.000000 0.000000
vn -1.000000 0.000000 0.000000
s off
g Stairs
usemtl initialShadingGroup
f 1/107/1 2/108/2 4/109/3 3/110/4
f 3/69/5 4/70/6 28/71/7 25/72/8
s 1
f 5/111/9 6/112/10 8/113/11 7/114/12
s 2
f 26/73/13 27/74/14 2/75/15 1/76/16
s 3
f 2/2/17 27/12/18 28/5/19 4/3/20
s 4
f 26/11/21 1/1/22 3/4/23 25/6/24
f 7/10/25 10/13/26 9/14/27 5/7/28
s 2
f 7/77/29 8/78/30 11/79/31 10/80/32
s 3
f 12/16/33 11/15/34 8/9/35 6/8/36
s off
f 66/81/37 65/82/38 67/83/39 68/84/40
s 4
f 10/13/26 14/21/41 13/22/42 9/14/27
s 2
f 10/80/32 11/79/31 15/85/43 14/86/44
s 3
f 16/24/45 15/23/46 11/15/34 12/16/33
s off
f 64/87/47 63/88/48 59/89/49 60/90/50
s 4
f 14/21/41 18/29/51 17/30/52 13/22/42
s 2
f 14/86/44 15/85/43 19/91/53 18/92/54
s 3
f 20/32/55 19/31/56 15/23/46 16/24/45
s off
f 58/93/57 57/94/58 55/95/59 56/96/60
s 4
f 18/29/51 22/37/61 21/38/62 17/30/52
s 2
f 18/92/54 19/91/53 23/97/63 22/98/64
s 3
f 24/40/65 23/39/66 19/31/56 20/32/55
s off
f 50/99/67 49/100/68 47/101/69 48/102/70
s 4
f 22/37/61 26/11/21 25/6/24 21/38/62
s 2
f 22/98/64 23/97/63 27/74/14 26/73/13
s 3
f 28/5/19 27/12/18 23/39/66 24/40/65
s off
f 40/103/71 39/104/72 37/105/73 38/106/74
s 3
f 12/16/33 6/8/36 31/49/75 29/50/76
s 1
f 6/112/10 5/111/9 32/115/77 31/116/78
s 4
f 5/7/28 9/14/27 30/52/79 32/51/80
s 3
f 16/24/45 12/16/33 29/50/76 33/53/81
s 4
f 9/14/27 13/22/42 34/54/82 30/52/79
s 3
f 20/32/55 16/24/45 33/53/81 35/55/83
s 4
f 13/22/42 17/30/52 36/56/84 34/54/82
s 3
f 24/40/65 20/32/55 35/55/83 37/47/85
s 4
f 17/30/52 21/38/62 38/48/86 36/56/84
s off
f 25/117/87 28/118/88 39/119/89 40/120/90
s 3
f 28/5/19 24/40/65 37/47/85 39/46/91
s 4
f 21/38/62 25/6/24 40/45/92 38/48/86
s 3
f 29/50/76 31/49/75 43/57/93 41/58/94
s 1
f 31/116/78 32/115/77 44/121/95 43/122/96
s 4
f 32/51/80 30/52/79 42/60/97 44/59/98
s 3
f 33/53/81 29/50/76 41/58/94 45/61/99
s 4
f 30/52/79 34/54/82 46/62/100 42/60/97
s 3
f 35/55/83 33/53/81 45/61/99 47/43/101
s 4
f 34/54/82 36/56/84 48/44/102 46/62/100
s off
f 38/123/103 37/124/104 49/125/105 50/126/106
s 3
f 37/47/85 35/55/83 47/43/101 49/42/107
s 4
f 36/56/84 38/48/86 50/41/108 48/44/102
s 3
f 41/58/94 43/57/93 53/63/109 51/64/110
s 1
f 43/122/96 44/121/95 54/127/111 53/128/112
s 4
f 44/59/98 42/60/97 52/66/113 54/65/114
s 3
f 45/61/99 41/58/94 51/64/110 55/35/115
s 4
f 42/60/97 46/62/100 56/36/116 52/66/113
s off
f 48/129/117 47/130/118 57/131/119 58/132/120
s 3
f 47/43/101 45/61/99 55/35/115 57/34/121
s 4
f 46/62/100 48/44/102 58/33/122 56/36/116
s 3
f 51/64/110 53/63/109 61/67/123 59/27/124
s 1
f 53/128/112 54/127/111 62/133/125 61/134/126
s 4
f 54/65/114 52/66/113 60/28/127 62/68/128
s off
f 56/135/129 55/136/130 63/137/131 64/138/132
s 3
f 55/35/115 51/64/110 59/27/124 63/26/133
s 4
f 52/66/113 56/36/116 64/25/134 60/28/127
s off
f 60/139/135 59/140/136 65/141/137 66/142/138
s 3
f 59/27/124 61/67/123 67/19/139 65/18/140
s 1
f 61/134/126 62/133/125 68/143/141 67/144/142
s 4
f 62/68/128 60/28/127 66/17/143 68/20/144
