# This file uses centimeters as units for non-parametric coordinates.

mtllib WallShort_HP.mtl
g default
v -0.971421 0.000000 -0.028579
v -0.971421 0.028579 0.000000
v -1.000000 0.028579 -0.028579
v -0.479791 0.000000 -0.028579
v -0.479791 0.028579 0.000000
v -0.520209 0.028579 0.000000
v -0.520209 0.000000 -0.028579
v 0.000000 0.028579 -0.028579
v -0.028579 0.028579 0.000000
v -0.028579 0.000000 -0.028579
v -1.000000 0.971421 -0.028579
v -0.971421 0.971421 0.000000
v -0.971421 1.000000 -0.028579
v -0.521308 1.000000 -0.028435
v -0.520203 0.971429 0.000000
v -0.479607 0.946752 0.000000
v -0.483409 0.986727 -0.028354
v -0.017962 0.614370 -0.029320
v -0.027407 0.586827 0.000000
v 0.000000 0.576997 -0.029320
v -1.000000 0.971421 -0.971421
v -0.971421 1.000000 -0.971421
v -0.971421 0.971421 -1.000000
v -0.520281 0.971318 -1.000000
v -0.521362 1.000000 -0.971493
v -0.483409 0.986727 -0.971646
v -0.479607 0.946752 -1.000000
v -0.027407 0.586827 -1.000000
v -0.017735 0.614188 -0.971051
v 0.000000 0.577288 -0.971051
v -1.000000 0.028579 -0.971421
v -0.971421 0.028579 -1.000000
v -0.971421 0.000000 -0.971421
v -0.520209 0.000000 -0.971421
v -0.520209 0.028579 -1.000000
v -0.479791 0.028579 -1.000000
v -0.479791 0.000000 -0.971421
v -0.028579 0.000000 -0.971421
v -0.028579 0.028579 -1.000000
v 0.000000 0.028579 -0.971421
vt 0.014457 0.485549
vt 0.009749 0.485569
vt 0.007833 0.019602
vt 0.655736 0.016835
vt 0.655740 0.021733
vt 0.650967 0.183328
vt 0.095447 0.485216
vt 0.088789 0.485244
vt 0.086873 0.019277
vt 0.739995 0.016769
vt 0.739999 0.021667
vt 0.179195 0.484872
vt 0.169779 0.484911
vt 0.167863 0.018944
vt 0.822230 0.021603
vt 0.655866 0.183325
vt 0.733199 0.183266
vt 0.733013 0.188163
vt 0.739507 0.185883
vt 0.740153 0.179031
vt 0.817607 0.117284
vt 0.819229 0.122003
vt 0.269539 0.484135
vt 0.808891 0.203119
vt 0.655470 0.204101
vt 0.454559 0.017766
vt 0.380417 0.018036
vt 0.380181 0.003948
vt 0.368737 0.003995
vt 0.373397 0.017989
vt 0.275156 0.018687
vt 0.273526 0.004386
vt 0.745799 0.366251
vt 0.656512 0.366823
vt 0.655500 0.208751
vt 0.655970 0.282173
vt 0.651319 0.282203
vt 0.651361 0.288780
vt 0.656012 0.288750
vt 0.656482 0.362172
vt 0.651831 0.362202
vt 0.733072 0.021672
vt 0.817332 0.021607
vt 0.456474 0.483733
vt 0.382324 0.484108
vt 0.375314 0.484176
vt 0.277118 0.484103
vt 0.808921 0.207769
vt 0.809374 0.281180
vt 0.805419 0.287824
vt 0.747322 0.361782
vt 0.012542 0.019583
vt 0.093532 0.019250
vt 0.177279 0.018906
vt 0.619297 0.017089
vt 0.621213 0.483055
vt 0.465891 0.483694
vt 0.463975 0.017728
vt 0.650841 0.021737
vt 0.736532 0.016772
vt 0.733068 0.016774
vt 0.817328 0.016709
vt 0.655869 0.188223
vt 0.736664 0.185958
vt 0.822303 0.115595
vt 0.454501 0.003642
vt 0.376840 0.003961
vt 0.267673 0.018718
vt 0.650849 0.208781
vt 0.651340 0.285491
vn -0.707107 -0.707107 0.000000
vn -0.707107 -0.707107 0.000000
vn -0.707107 -0.707107 0.000000
vn -0.707107 -0.707107 0.000000
vn 0.000000 -0.707107 0.707107
vn 0.000000 -0.707107 0.707107
vn 0.000000 -0.707107 0.707107
vn 0.000000 -0.707107 0.707107
vn -0.707106 0.000000 0.707107
vn -0.707106 0.000000 0.707107
vn -0.707106 0.000000 0.707107
vn -0.707106 0.000000 0.707107
vn 0.000000 -1.000000 0.000000
vn 0.000000 -1.000000 0.000000
vn 0.000000 -1.000000 0.000000
vn 0.000000 -1.000000 0.000000
vn 0.000000 -0.707107 0.707107
vn 0.000000 -0.707107 0.707107
vn 0.000000 -0.707107 0.707107
vn 0.000000 -0.707107 0.707107
vn 0.000000 0.000000 1.000000
vn 0.000000 0.000000 1.000000
vn 0.000000 0.000000 1.000000
vn 0.000000 0.000000 1.000000
vn 0.707107 -0.707107 0.000000
vn 0.707107 -0.707107 0.000000
vn 0.707107 -0.707107 0.000000
vn 0.707107 -0.707107 0.000000
vn 0.718854 -0.000296 0.695161
vn 0.718854 -0.000296 0.695161
vn 0.720686 0.008979 0.693203
vn 0.609743 0.303115 0.732349
vn -0.707107 0.707107 0.000000
vn -0.707107 0.707107 0.000000
vn -0.707107 0.707107 0.000000
vn -0.707107 0.707107 0.000000
vn -0.000120 0.706261 0.707951
vn -0.000120 0.706261 0.707951
vn 0.029846 0.700868 0.712667
vn 0.024760 0.701830 0.711914
vn 0.027306 0.999627 -0.000001
vn 0.608149 0.793823 -0.000001
vn 0.608222 0.793767 -0.000001
vn 0.027383 0.999625 -0.000001
vn 0.433480 0.565655 0.701519
vn 0.439769 0.562630 0.700036
vn 0.454892 0.555084 0.696387
vn 0.646363 0.763030 0.000009
vn 0.999539 0.030366 0.000009
vn 0.999538 0.030410 0.000009
vn 0.646392 0.763006 0.000009
vn -0.707107 0.000000 -0.707107
vn -0.707107 0.000000 -0.707107
vn -0.707107 0.000000 -0.707107
vn -0.707107 0.000000 -0.707107
vn 0.000024 0.706023 -0.708189
vn 0.000024 0.706023 -0.708189
vn 0.024689 0.701591 -0.712152
vn 0.029791 0.700618 -0.712915
vn 0.000000 0.000000 -1.000000
vn 0.000000 0.000000 -1.000000
vn 0.000000 0.000000 -1.000000
vn 0.000000 0.000000 -1.000000
vn 0.438086 0.561066 -0.702343
vn 0.431705 0.564209 -0.703775
vn 0.453061 0.553433 -0.698890
vn 0.607528 0.301982 -0.734655
vn 0.718320 0.008555 -0.695660
vn 0.716604 -0.000525 -0.697480
vn 0.716604 -0.000525 -0.697480
vn 0.000000 -0.707107 -0.707106
vn 0.000000 -0.707107 -0.707106
vn 0.000000 -0.707107 -0.707106
vn 0.000000 -0.707107 -0.707106
vn 0.000000 -0.707107 -0.707106
vn 0.000000 -0.707107 -0.707106
vn 0.000000 -0.707107 -0.707106
vn 0.000000 -0.707107 -0.707106
vn 0.000000 0.000000 1.000000
vn 0.000000 0.000000 1.000000
vn 0.000000 0.000000 1.000000
vn 0.000000 0.000000 1.000000
vn 0.000000 1.000000 0.000000
vn 0.000000 1.000000 0.000000
vn 0.000000 0.000000 -1.000000
vn 0.000000 0.000000 -1.000000
vn 0.000000 0.000000 -1.000000
vn 0.000000 0.000000 -1.000000
vn 0.000000 -1.000000 0.000000
vn 0.000000 -1.000000 0.000000
vn 0.000000 -1.000000 0.000000
vn 0.000000 -1.000000 0.000000
vn 1.000000 0.000000 0.000000
vn 1.000000 0.000000 0.000000
vn -1.000000 0.000000 0.000000
vn -1.000000 0.000000 0.000000
vn -1.000000 0.000000 0.000000
vn -1.000000 0.000000 0.000000
vn -0.577350 -0.577351 0.577350
vn -0.577350 -0.577351 0.577350
vn -0.577350 -0.577351 0.577350
vn 0.577350 -0.577350 0.577350
vn 0.577350 -0.577350 0.577350
vn 0.577350 -0.577350 0.577350
vn -0.577351 0.577351 0.577349
vn -0.577351 0.577351 0.577349
vn -0.577351 0.577351 0.577349
vn -0.577351 0.577351 -0.577349
vn -0.577351 0.577351 -0.577349
vn -0.577351 0.577351 -0.577349
vn -0.577350 -0.577350 -0.577350
vn -0.577350 -0.577350 -0.577350
vn -0.577350 -0.577350 -0.577350
vn 0.577351 -0.577350 -0.577350
vn 0.577351 -0.577350 -0.577350
vn 0.577351 -0.577350 -0.577350
s off
g WallShort
usemtl initialShadingGroup
f 1/1/1 3/2/2 31/3/3 33/52/4
s 1
f 2/5/5 1/4/6 7/61/7 6/42/8
s off
f 3/59/9 2/5/10 12/16/11 11/6/12
s 2
f 4/7/13 7/8/14 34/9/15 37/53/16
s 1
f 5/11/17 4/10/18 10/62/19 9/43/20
s 3
f 6/42/21 5/11/22 16/20/23 15/17/24
s off
f 8/12/25 10/13/26 38/14/27 40/54/28
s 4
f 9/43/29 8/15/30 20/65/31 19/21/32
s off
f 11/57/33 13/44/34 22/26/35 21/58/36
s 4
f 13/63/37 12/16/38 15/17/39 14/18/40
s 6
f 14/45/41 17/46/42 26/30/43 25/27/44
s 4
f 17/19/45 16/20/46 19/21/32 18/22/47
s 6
f 18/47/48 20/23/49 30/68/50 29/31/51
s off
f 21/24/52 23/48/53 32/35/54 31/25/55
s 8
f 23/66/56 22/26/57 25/27/58 24/28/59
s 9
f 24/49/60 27/50/61 36/39/62 35/36/63
s 8
f 27/29/64 26/30/65 29/31/66 28/32/67
f 28/51/67 30/33/68 40/34/69 39/40/70
s 10
f 33/69/71 32/35/72 35/36/73 34/37/74
f 37/38/75 36/39/76 39/40/77 38/41/78
s 3
f 2/5/79 6/42/21 15/17/24 12/16/80
f 5/11/22 9/43/81 19/21/82 16/20/23
s 6
f 13/44/83 14/45/41 25/27/44 22/26/84
f 17/46/42 18/47/48 29/31/51 26/30/43
s 9
f 23/48/85 24/49/60 35/36/63 32/35/86
f 27/50/61 28/51/87 39/40/88 36/39/62
s 2
f 33/52/89 34/9/15 7/8/14 1/1/90
f 37/53/16 38/14/91 10/13/92 4/7/13
s 6
f 8/12/93 40/54/94 30/68/50 20/23/49
s off
f 31/55/95 3/56/96 11/57/97 21/58/98
f 1/4/99 2/5/100 3/59/101
s 1
f 4/60/18 5/11/17 6/42/8 7/61/7
s off
f 8/15/102 9/43/103 10/62/104
f 11/6/105 12/16/106 13/63/107
s 4
f 14/18/40 15/17/39 16/20/46 17/64/45
f 18/22/47 19/21/32 20/65/31
s off
f 21/58/108 22/26/109 23/66/110
s 8
f 24/28/59 25/27/58 26/30/65 27/67/64
f 28/32/67 29/31/66 30/68/68
s off
f 31/25/111 32/35/112 33/69/113
s 10
f 34/37/74 35/36/73 36/39/76 37/70/75
s off
f 38/41/114 39/40/115 40/34/116
