# This file uses centimeters as units for non-parametric coordinates.

mtllib Wall_HP.mtl
g default
v -0.991629 0.008371 -0.028579
v -0.971421 0.000000 -0.028579
v -0.971421 0.008371 -0.008371
v -0.971421 0.028579 0.000000
v -0.991629 0.028579 -0.008371
v -1.000000 0.028579 -0.028579
v -0.500000 0.000000 -0.028579
v -0.479791 0.000000 -0.028579
v -0.479793 0.008371 -0.008371
v -0.479791 0.028579 0.000000
v -0.500000 0.028579 0.000000
v -0.520209 0.028579 0.000000
v -0.520209 0.008371 -0.008371
v -0.520209 0.000000 -0.028579
v -0.008371 0.008371 -0.028571
v 0.000000 0.028579 -0.028579
v -0.008371 0.028579 -0.008371
v -0.028579 0.028579 0.000000
v -0.028592 0.008371 -0.008371
v -0.028579 0.000000 -0.028579
v -0.991629 0.991629 -0.028581
v -1.000000 0.971421 -0.028579
v -0.991629 0.971421 -0.008371
v -0.971421 0.971421 0.000000
v -0.971421 0.991629 -0.008371
v -0.971421 1.000000 -0.028579
v -0.501213 0.996585 -0.028385
v -0.521308 1.000000 -0.028435
v -0.520756 0.991635 -0.008325
v -0.520203 0.971429 0.000000
v -0.500508 0.964619 0.000000
v -0.479607 0.946752 0.000000
v -0.481639 0.975047 -0.008259
v -0.483409 0.986727 -0.028354
v -0.004724 0.597730 -0.029336
v -0.017962 0.614370 -0.029320
v -0.022729 0.606590 -0.008326
v -0.027407 0.586827 0.000000
v -0.009051 0.578137 -0.008327
v 0.000000 0.576997 -0.029320
v -0.991629 0.971422 -2.991629
v -1.000000 0.971421 -2.971421
v -0.991629 0.991629 -2.971420
v -0.971421 1.000000 -2.971421
v -0.971421 0.991629 -2.991629
v -0.971421 0.971421 -3.000000
v -0.500528 0.964543 -3.000000
v -0.520281 0.971318 -3.000000
v -0.520823 0.991603 -2.991654
v -0.521362 1.000000 -2.971493
v -0.501227 0.996585 -2.971575
v -0.483409 0.986727 -2.971646
v -0.481639 0.975047 -2.991741
v -0.479607 0.946752 -3.000000
v -0.009066 0.578301 -2.991798
v -0.027407 0.586827 -3.000000
v -0.022610 0.606476 -2.991799
v -0.017735 0.614188 -2.971051
v -0.004664 0.597758 -2.971041
v 0.000000 0.577288 -2.971051
v -0.991629 0.008371 -2.971421
v -1.000000 0.028579 -2.971421
v -0.991629 0.028579 -2.991629
v -0.971421 0.028579 -3.000000
v -0.971421 0.008371 -2.991629
v -0.971421 0.000000 -2.971421
v -0.500000 0.000000 -2.971421
v -0.520209 0.000000 -2.971421
v -0.520208 0.008371 -2.991629
v -0.520209 0.028579 -3.000000
v -0.500000 0.028579 -3.000000
v -0.479791 0.028579 -3.000000
v -0.479793 0.008371 -2.991629
v -0.479791 0.000000 -2.971421
v -0.008371 0.008371 -2.971425
v -0.028579 0.000000 -2.971421
v -0.028592 0.008371 -2.991629
v -0.028579 0.028579 -3.000000
v -0.008371 0.028579 -2.991629
v 0.000000 0.028579 -2.971421
v -0.987915 0.012085 -0.012085
v -0.499999 0.008371 -0.008371
v -0.012082 0.012085 -0.012084
v -0.987915 0.987915 -0.012086
v -0.500742 0.987246 -0.008306
v -0.009882 0.595248 -0.012123
v -0.987915 0.987916 -2.987915
v -0.500761 0.987224 -2.991681
v -0.009845 0.595266 -2.988054
v -0.987915 0.012085 -2.987915
v -0.499999 0.008371 -2.991629
v -0.012082 0.012085 -2.987915
vt 0.014495 0.494966
vt 0.655740 0.021733
vt 0.088827 0.494660
vt 0.095486 0.494633
vt 0.739999 0.021667
vt 0.169817 0.494327
vt 0.179234 0.494288
vt 0.655866 0.183325
vt 0.733199 0.183266
vt 0.740153 0.179031
vt 0.817607 0.117284
vt 0.269578 0.493795
vt 0.619259 0.007673
vt 0.454520 0.008350
vt 0.380378 0.008643
vt 0.373359 0.008647
vt 0.275117 0.009149
vt 0.267634 0.009180
vt 0.177241 0.009490
vt 0.086835 0.009861
vt 0.655500 0.208751
vt 0.655970 0.282173
vt 0.167824 0.009528
vt 0.656012 0.288750
vt 0.656482 0.362172
vt 0.733072 0.021672
vt 0.817332 0.021607
vt 0.456513 0.493149
vt 0.382363 0.493478
vt 0.375352 0.493519
vt 0.277157 0.493764
vt 0.808921 0.207769
vt 0.809374 0.281180
vt 0.805419 0.287824
vt 0.747322 0.361782
vt 0.012503 0.010167
vt 0.093493 0.009834
vt 0.621251 0.492471
vt 0.465929 0.493110
vt 0.463937 0.008312
vt 0.009795 0.496820
vt 0.625967 0.494287
vt 0.653873 0.016836
vt 0.012724 0.499681
vt 0.623061 0.497172
vt 0.650840 0.019874
vt 0.092156 0.494653
vt 0.740075 0.016769
vt 0.095581 0.499340
vt 0.736535 0.021648
vt 0.088770 0.499368
vt 0.732988 0.016774
vt 0.174528 0.494323
vt 0.822228 0.019751
vt 0.177472 0.499004
vt 0.171625 0.499028
vt 0.819188 0.016707
vt 0.461219 0.493143
vt 0.650969 0.185191
vt 0.464158 0.497825
vt 0.458322 0.497849
vt 0.654008 0.188224
vt 0.378859 0.493504
vt 0.733071 0.188163
vt 0.382327 0.498162
vt 0.736571 0.182151
vt 0.375069 0.498192
vt 0.739753 0.185686
vt 0.273364 0.493790
vt 0.819915 0.121454
vt 0.276333 0.498597
vt 0.270420 0.498622
vt 0.822304 0.116450
vt 0.462126 0.003611
vt 0.810660 0.203108
vt 0.459226 0.008318
vt 0.813560 0.205973
vt 0.456290 0.003635
vt 0.808345 0.284400
vt 0.380303 0.003947
vt 0.814041 0.281030
vt 0.376868 0.008639
vt 0.811734 0.287399
vt 0.373037 0.003977
vt 0.746589 0.366246
vt 0.268415 0.004407
vt 0.274275 0.004383
vt 0.751281 0.363965
vt 0.271376 0.009153
vt 0.623959 0.005819
vt 0.007787 0.008352
vt 0.653701 0.204112
vt 0.621030 0.002958
vt 0.010693 0.005467
vt 0.650838 0.207012
vt 0.090164 0.009840
vt 0.651319 0.282127
vt 0.086738 0.005154
vt 0.655969 0.285462
vt 0.093550 0.005126
vt 0.651362 0.288855
vt 0.172535 0.009495
vt 0.651843 0.363968
vt 0.169593 0.004813
vt 0.175441 0.004789
vt 0.654753 0.366834
vt 0.009807 0.499693
vt 0.650838 0.016838
vt 0.625979 0.497160
vt 0.736532 0.016772
vt 0.092176 0.499354
vt 0.174545 0.499016
vt 0.822226 0.016705
vt 0.461241 0.497837
vt 0.650971 0.188227
vt 0.736665 0.188160
vt 0.378872 0.498176
vt 0.273388 0.498610
vt 0.822306 0.119538
vt 0.459209 0.003623
vt 0.813542 0.203089
vt 0.376840 0.003961
vt 0.814063 0.284450
vt 0.749494 0.366228
vt 0.271356 0.004395
vt 0.623947 0.002946
vt 0.650820 0.204131
vt 0.007775 0.005479
vt 0.651340 0.285491
vt 0.090144 0.005140
vt 0.172513 0.004801
vt 0.651861 0.366852
vn -0.017713 -0.999839 0.002783
vn -0.382487 -0.923959 0.001747
vn -0.382487 -0.923959 -0.001747
vn -0.017713 -0.999839 -0.002783
vn -0.923960 -0.382486 0.001747
vn -0.999959 -0.008671 0.002805
vn -0.999959 -0.008671 -0.002805
vn -0.923959 -0.382486 -0.001747
vn -0.017628 -0.008563 0.999808
vn -0.011086 -0.381423 0.924334
vn -0.000000 -0.382683 0.923880
vn -0.000000 -0.008697 0.999962
vn -0.011086 -0.924334 0.381423
vn -0.000000 -0.999996 0.002825
vn -0.000000 -0.923880 0.382684
vn -0.924116 -0.005396 0.382075
vn -0.924116 0.005396 0.382075
vn -0.999959 0.008671 0.002804
vn -0.382075 -0.005396 0.924116
vn -0.017629 0.008535 0.999808
vn -0.382075 0.005397 0.924115
vn 0.000000 -0.999996 0.002825
vn -0.000000 -0.999996 0.002825
vn 0.000000 -0.999996 -0.002825
vn 0.000000 -0.999996 -0.002825
vn 0.000000 -0.999996 -0.002825
vn -0.000000 -0.010897 0.999941
vn -0.000000 -0.382683 0.923880
vn 0.011077 -0.381424 0.924334
vn 0.013354 -0.010980 0.999851
vn 0.000000 -0.923879 0.382684
vn 0.017717 -0.999839 0.002782
vn 0.011075 -0.924332 0.381427
vn -0.000000 -0.008761 0.999962
vn 0.006231 0.010725 0.999923
vn 0.000124 0.008681 0.999962
vn 0.018892 0.023649 0.999542
vn 0.999888 -0.014692 0.002908
vn 0.923959 -0.382487 0.001748
vn 0.923959 -0.382487 -0.001747
vn 0.999888 -0.014686 -0.002909
vn 0.382487 -0.923959 0.001750
vn 0.017715 -0.999839 -0.002782
vn 0.382487 -0.923959 -0.001749
vn 0.395822 -0.009666 0.918276
vn 0.399023 0.004102 0.916932
vn 0.011874 0.005860 0.999912
vn 0.921516 -0.008162 0.388254
vn 0.999962 0.008217 0.002995
vn 0.921465 0.005781 0.388418
vn -0.923960 0.382486 0.001747
vn -0.923960 0.382486 -0.001747
vn -0.999959 0.008671 -0.002805
vn -0.382487 0.923959 0.001747
vn -0.017751 0.999839 0.002783
vn -0.017753 0.999839 -0.002788
vn -0.382487 0.923959 -0.001747
vn -0.011213 0.924064 0.382073
vn 0.008148 0.923259 0.384091
vn 0.007277 0.999969 0.002868
vn -0.011150 0.380565 0.924687
vn 0.003766 0.381117 0.924519
vn 0.330618 0.943760 0.002868
vn 0.330786 0.943701 -0.002881
vn 0.007283 0.999969 -0.002872
vn 0.620336 0.784333 0.002223
vn 0.620342 0.784328 -0.002224
vn 0.575646 0.722168 0.383543
vn 0.581661 0.717843 0.382587
vn 0.630596 0.776106 0.002915
vn 0.242318 0.304994 0.921011
vn 0.247693 0.303264 0.920152
vn 0.901301 0.433188 0.002157
vn 0.901301 0.433188 -0.002097
vn 0.630600 0.776103 -0.002910
vn 0.999962 0.008222 -0.002990
vn -0.924117 0.005397 -0.382071
vn -0.924117 -0.005396 -0.382071
vn -0.382062 0.005397 -0.924121
vn -0.017632 0.008548 -0.999808
vn -0.017630 -0.008564 -0.999808
vn -0.382062 -0.005396 -0.924121
vn -0.011051 0.380358 -0.924773
vn 0.003828 0.380891 -0.924612
vn 0.000124 0.008692 -0.999962
vn -0.011128 0.923974 -0.382293
vn 0.008186 0.923159 -0.384331
vn 0.006183 0.010743 -0.999923
vn -0.000006 -0.008753 -0.999962
vn -0.000001 -0.008699 -0.999962
vn 0.018748 0.023481 -0.999548
vn 0.000001 -0.010897 -0.999941
vn 0.240741 0.303332 -0.921973
vn 0.246001 0.301404 -0.921216
vn 0.011831 0.005838 -0.999913
vn 0.574919 0.721554 -0.385783
vn 0.580833 0.717249 -0.384950
vn 0.396536 0.003942 -0.918011
vn 0.393476 -0.009775 -0.919283
vn 0.013257 -0.010984 -0.999852
vn 0.920471 0.005478 -0.390772
vn 0.920588 -0.008361 -0.390446
vn -0.011086 -0.924335 -0.381422
vn 0.000000 -0.923880 -0.382683
vn -0.011086 -0.381422 -0.924335
vn 0.000000 -0.382683 -0.923880
vn 0.000000 -0.923880 -0.382683
vn 0.011077 -0.924333 -0.381426
vn 0.000000 -0.382683 -0.923880
vn 0.011079 -0.381425 -0.924333
vn -0.887920 -0.325264 0.325271
vn -0.325267 -0.887920 0.325268
vn -0.325269 -0.325271 0.887918
vn 0.000000 -0.923880 0.382683
vn 0.000000 -0.382684 0.923879
vn 0.325086 -0.887933 0.325415
vn 0.887967 -0.325140 0.325268
vn 0.325128 -0.325328 0.887949
vn -0.325289 0.887914 0.325261
vn -0.887916 0.325284 0.325262
vn -0.325287 0.325286 0.887906
vn 0.347824 0.850265 0.395053
vn 0.154586 0.341742 0.926993
vn 0.840937 0.404181 0.359810
vn 0.476855 0.229213 0.848570
vn -0.325281 0.325282 -0.887910
vn -0.887917 0.325291 -0.325253
vn -0.325269 0.887924 -0.325255
vn 0.153389 0.341549 -0.927263
vn 0.346440 0.850571 -0.395611
vn 0.839133 0.403312 -0.364959
vn 0.471086 0.226449 -0.852525
vn -0.325260 -0.887923 -0.325268
vn -0.887924 -0.325262 -0.325263
vn -0.325269 -0.325268 -0.887919
vn 0.000000 -0.923880 -0.382683
vn 0.000000 -0.382683 -0.923880
vn 0.887958 -0.325184 -0.325248
vn 0.325126 -0.887925 -0.325394
vn 0.325170 -0.325364 -0.887920
s 1
g Wall_HP
usemtl initialShadingGroup
f 2/1/1 1/41/2 61/91/3 66/36/4
s 2
f 1/42/5 6/38/6 62/13/7 61/90/8
s 3
f 4/2/9 3/43/10 13/52/11 12/26/12
s 1
f 3/44/13 2/1/1 14/3/14 13/51/15
s 2
f 6/38/6 5/45/16 23/60/17 22/39/18
s 3
f 5/46/19 4/2/9 24/8/20 23/59/21
s 1
f 8/4/22 7/47/23 67/96/24 74/37/25
f 7/47/23 14/3/14 68/20/26 67/96/24
s 3
f 10/5/27 9/48/28 19/57/29 18/27/30
s 1
f 9/49/31 8/4/22 20/6/32 19/56/33
s 3
f 12/26/12 11/50/34 31/66/35 30/9/36
f 11/50/34 10/5/27 32/10/37 31/66/35
s 6
f 16/7/38 15/53/39 75/102/40 80/19/41
s 1
f 15/53/42 20/6/32 76/23/43 75/102/44
s 3
f 18/27/30 17/54/45 39/73/46 38/11/47
s 6
f 17/55/48 16/7/38 40/12/49 39/72/50
s 2
f 22/39/18 21/58/51 43/76/52 42/40/53
s 6
f 21/58/54 26/28/55 44/14/56 43/76/57
f 26/28/55 25/61/58 29/65/59 28/29/60
s 3
f 25/62/61 24/8/20 30/9/36 29/64/62
s 6
f 28/29/60 27/63/63 51/82/64 50/15/65
f 27/63/63 34/30/66 52/16/67 51/82/64
f 34/30/66 33/67/68 37/71/69 36/31/70
s 3
f 33/68/71 32/10/37 38/11/47 37/70/72
s 6
f 36/31/70 35/69/73 59/89/74 58/17/75
f 35/69/73 40/12/49 60/18/76 59/89/74
s 2
f 42/40/53 41/74/77 63/93/78 62/13/7
s 8
f 41/75/79 46/32/80 64/21/81 63/92/82
f 46/32/80 45/77/83 49/81/84 48/33/85
s 6
f 45/78/86 44/14/56 50/15/65 49/80/87
s 8
f 48/33/85 47/79/88 71/99/89 70/22/90
f 47/79/88 54/34/91 72/24/92 71/99/89
f 54/34/91 53/83/93 57/88/94 56/35/95
s 6
f 53/84/96 52/16/67 58/17/75 57/87/97
s 8
f 56/35/95 55/85/98 79/106/99 78/25/100
s 6
f 55/86/101 60/18/76 80/19/41 79/105/102
s 1
f 66/36/4 65/94/103 69/98/104 68/20/26
s 8
f 65/95/105 64/21/81 70/22/90 69/97/106
s 1
f 74/37/25 73/100/107 77/104/108 76/23/43
s 8
f 73/101/109 72/24/92 78/25/100 77/103/110
s 3
f 4/2/9 12/26/12 30/9/36 24/8/20
f 10/5/27 18/27/30 38/11/47 32/10/37
s 6
f 26/28/55 28/29/60 50/15/65 44/14/56
f 34/30/66 36/31/70 58/17/75 52/16/67
s 8
f 46/32/80 48/33/85 70/22/90 64/21/81
f 54/34/91 56/35/95 78/25/100 72/24/92
s 1
f 66/36/4 68/20/26 14/3/14 2/1/1
f 74/37/25 76/23/43 20/6/32 8/4/22
s 6
f 16/7/38 80/19/41 60/18/76 40/12/49
s 2
f 62/13/7 6/38/6 22/39/18 42/40/53
f 5/45/16 6/38/6 1/42/5 81/109/111
s 1
f 1/41/2 2/1/1 3/44/13 81/107/112
s 3
f 3/43/10 4/2/9 5/46/19 81/108/113
s 1
f 13/51/15 14/3/14 7/47/23 82/111/114
f 7/47/23 8/4/22 9/49/31 82/111/114
s 3
f 9/48/28 10/5/27 11/50/34 82/110/115
f 11/50/34 12/26/12 13/52/11 82/110/115
s 1
f 19/56/33 20/6/32 15/53/42 83/112/116
s 6
f 15/53/39 16/7/38 17/55/48 83/112/117
s 3
f 17/54/45 18/27/30 19/57/29 83/113/118
s 6
f 25/61/58 26/28/55 21/58/54 84/114/119
s 2
f 21/58/51 22/39/18 23/60/17 84/114/120
s 3
f 23/59/21 24/8/20 25/62/61 84/115/121
s 6
f 33/67/68 34/30/66 27/63/63 85/117/122
f 27/63/63 28/29/60 29/65/59 85/117/122
s 3
f 29/64/62 30/9/36 31/66/35 85/116/123
f 31/66/35 32/10/37 33/68/71 85/116/123
s 6
f 39/72/50 40/12/49 35/69/73 86/118/124
f 35/69/73 36/31/70 37/71/69 86/118/124
s 3
f 37/70/72 38/11/47 39/73/46 86/119/125
s 8
f 45/77/83 46/32/80 41/75/79 87/121/126
s 2
f 41/74/77 42/40/53 43/76/52 87/120/127
s 6
f 43/76/57 44/14/56 45/78/86 87/120/128
s 8
f 53/83/93 54/34/91 47/79/88 88/123/129
f 47/79/88 48/33/85 49/81/84 88/123/129
s 6
f 49/80/87 50/15/65 51/82/64 88/122/130
f 51/82/64 52/16/67 53/84/96 88/122/130
f 59/89/74 60/18/76 55/86/101 89/125/131
s 8
f 55/85/98 56/35/95 57/88/94 89/124/132
s 6
f 57/87/97 58/17/75 59/89/74 89/125/131
s 1
f 65/94/103 66/36/4 61/91/3 90/128/133
s 2
f 61/90/8 62/13/7 63/93/78 90/126/134
s 8
f 63/92/82 64/21/81 65/95/105 90/127/135
s 1
f 73/100/107 74/37/25 67/96/24 91/130/136
f 67/96/24 68/20/26 69/98/104 91/130/136
s 8
f 69/97/106 70/22/90 71/99/89 91/129/137
f 71/99/89 72/24/92 73/101/109 91/129/137
s 6
f 79/105/102 80/19/41 75/102/40 92/131/138
s 1
f 75/102/44 76/23/43 77/104/108 92/131/139
s 8
f 77/103/110 78/25/100 79/106/99 92/132/140
